<?xml version="1.0" encoding="UTF-8" standalone="no"?>
<!-- Created with Inkscape (http://www.inkscape.org/) -->

<svg
   xmlns:dc="http://purl.org/dc/elements/1.1/"
   xmlns:cc="http://creativecommons.org/ns#"
   xmlns:rdf="http://www.w3.org/1999/02/22-rdf-syntax-ns#"
   xmlns:svg="http://www.w3.org/2000/svg"
   xmlns="http://www.w3.org/2000/svg"
   xmlns:sodipodi="http://sodipodi.sourceforge.net/DTD/sodipodi-0.dtd"
   xmlns:inkscape="http://www.inkscape.org/namespaces/inkscape"
   version="1.1"
   id="svg133"
   width="128"
   height="128"
   viewBox="0 0 128 128"
   sodipodi:docname="electerm.svg"
   inkscape:version="0.92.4 (5da689c313, 2019-01-14)">
  <metadata
     id="metadata139">
    <rdf:RDF>
      <cc:Work
         rdf:about="">
        <dc:format>image/svg+xml</dc:format>
        <dc:type
           rdf:resource="http://purl.org/dc/dcmitype/StillImage" />
        <dc:title />
      </cc:Work>
    </rdf:RDF>
  </metadata>
  <defs
     id="defs137" />
  <sodipodi:namedview
     pagecolor="#ffffff"
     bordercolor="#666666"
     borderopacity="1"
     objecttolerance="10"
     gridtolerance="10"
     guidetolerance="10"
     inkscape:pageopacity="0"
     inkscape:pageshadow="2"
     inkscape:window-width="1920"
     inkscape:window-height="1017"
     id="namedview135"
     showgrid="false"
     inkscape:zoom="5.6568543"
     inkscape:cx="39.701641"
     inkscape:cy="57.382447"
     inkscape:window-x="-8"
     inkscape:window-y="1072"
     inkscape:window-maximized="1"
     inkscape:current-layer="svg133" />
  <g
     id="g235"
     transform="translate(151.05085,-2.7118644)">
    <path
       style="fill:#000080"
       d="m -75.256138,119.65925 c -7.47001,-1.08795 -22.89813,-5.84467 -33.610782,-10.36269 -18.70507,-7.8888 -31.60099,-18.07641 -37.14709,-29.34571 -2.78401,-5.65694 -3.26186,-7.69368 -3.22825,-13.75983 0.0713,-12.86704 8.00452,-24.995076 22.78129,-34.827199 15.14088,-10.074393 30.559202,-14.860856 48.179262,-14.956771 27.301978,-0.148618 43.935228,12.975024 51.161198,40.36621 2.60136,9.86088 2.40079,28.44707 -0.40482,37.51361 -6.40251,20.69015 -22.20455,29.09008 -47.730808,25.37238 z m 25.158118,-11.66934 c 0.84421,-0.53684 1.2744,-7.77409 1.5,-25.23468 0.3616,-27.98723 0.38564,-28.07499 8.72215,-31.84262 8.36104,-3.77872 7.45416,-5.76849 -2.90584,-6.37563 -4.42945,-0.25959 -4.50909,-0.32643 -5.07956,-4.263722 -0.6712,-4.632541 -3.44907,-11.520845 -4.619406,-11.454789 -0.440572,0.02487 -2.474222,2.724866 -4.519242,6 l -3.71821,5.954789 h -5.49132 c -4.70205,0 -5.85683,0.39418 -8.0343,2.742482 -1.39863,1.50837 -2.39227,3.19587 -2.20808,3.75 0.18419,0.55414 3.61037,2.37484 7.61374,4.04601 9.69272,4.04615 10.13534,4.99449 11.16833,23.92905 0.47275,8.6654 1.67074,18.63267 2.82841,23.53246 1.10456,4.675 2.019852,8.8375 2.033972,9.25 0.0326,0.95074 1.184126,0.93656 2.709356,-0.0333 z m -50.45393,-6.89965 c 7.120572,-2.80638 11.581272,-6.2952 13.733642,-10.74139 2.10391,-4.34611 2.68388,-8.57561 1.17592,-8.57561 -0.47338,0 -5.66697,2.25 -11.54132,5 -11.340592,5.30895 -16.282152,6.16315 -18.801412,3.25 -2.11096,-2.44101 -3.79659,-7.86868 -3.79659,-12.22491 0,-4.62137 2.2709,-6.74129 11.16105,-10.41897 8.34189,-3.45088 10.112282,-4.73025 9.337982,-6.74806 -0.43985,-1.14622 -3.102962,-1.92987 -9.554432,-2.81151 -8.383,-1.14559 -8.9446,-1.37028 -8.9446,-3.57868 0,-1.29599 1.08501,-3.61894 2.41112,-5.16211 l 2.41113,-2.80576 16.588872,-0.3173 c 15.78509,-0.30192 16.58888,-0.41367 16.58888,-2.30623 0,-3.342942 -7.04346,-5.492221 -25.500002,-7.781209 -20.12299,-2.495662 -19.59243,-2.479409 -22.05887,-0.675764 -1.65815,1.212562 -1.94113,2.659683 -1.94113,9.926663 0,9.74244 -1.45014,12.70145 -7.91658,16.15384 -4.86255,2.59608 -5.92965,4.56068 -3.98512,7.33688 0.83331,1.18971 2.50863,1.759898 3.16894,2.118926 2.31651,1.259534 7.12157,5.200054 9.22295,11.514724 5.5198,16.58698 16.08396,23.63728 28.23957,18.84647 z"
       id="use224"
       inkscape:connector-curvature="0"
       sodipodi:nodetypes="sscsssssscsscscscscccsscccscssssscssccsssssscscs" />
  </g>
  <text
     xml:space="preserve"
     style="font-style:normal;font-weight:normal;font-size:40px;line-height:1.25;font-family:sans-serif;letter-spacing:0px;word-spacing:0px;fill:#000000;fill-opacity:1;stroke:none"
     x="-162.71185"
     y="58.576271"
     id="text14"><tspan
       sodipodi:role="line"
       id="tspan12"
       x="-162.71185"
       y="95.069481" /></text>
  <text
     xml:space="preserve"
     style="font-style:normal;font-weight:normal;font-size:40px;line-height:1.25;font-family:sans-serif;letter-spacing:0px;word-spacing:0px;fill:#000000;fill-opacity:1;stroke:none"
     x="-152.40678"
     y="42.305084"
     id="text20"><tspan
       sodipodi:role="line"
       id="tspan18"
       x="-152.40678"
       y="78.798294"
       style="font-style:normal;font-variant:normal;font-weight:normal;font-stretch:normal;font-size:96px;font-family:'Baskerville Old Face';-inkscape-font-specification:'Baskerville Old Face, Normal';font-variant-ligatures:normal;font-variant-caps:normal;font-variant-numeric:normal;font-feature-settings:normal;text-align:start;writing-mode:lr-tb;text-anchor:start" /></text>
  <text
     xml:space="preserve"
     style="font-style:normal;font-weight:normal;font-size:40px;line-height:1.25;font-family:sans-serif;letter-spacing:0px;word-spacing:0px;fill:#000000;fill-opacity:1;stroke:none"
     x="-58.033897"
     y="32"
     id="text24"><tspan
       sodipodi:role="line"
       id="tspan22"
       x="-58.033897"
       y="68.49321" /></text>
  <path
     style="fill:#deffff;stroke-width:0.08838835;fill-opacity:1"
     d="M 40.751765,99.629366 C 39.229866,99.392225 37.650533,98.903009 36.2113,98.222907 30.313917,95.436131 25.641873,89.195008 22.379215,79.745392 21.201029,76.333022 19.407669,73.470741 16.884603,70.975752 15.223666,69.333298 14.071659,68.490438 12.258058,67.590763 10.939106,66.936469 10.294886,66.435422 9.7832089,65.665931 8.9593618,64.426979 8.8039111,63.304284 9.3144849,62.280714 c 0.5691585,-1.141018 1.8716451,-2.180066 4.7555341,-3.79369 4.37465,-2.447752 6.064843,-4.339303 6.981071,-7.812752 0.533618,-2.022965 0.684245,-3.754063 0.754459,-8.670704 0.05605,-3.924979 0.15534,-5.813279 0.360179,-6.850097 0.183123,-0.926907 0.648453,-1.846186 1.164419,-2.300357 0.650275,-0.572396 1.662505,-1.216057 2.168176,-1.378709 0.757354,-0.243609 2.922847,-0.260641 5.277093,-0.04151 3.488544,0.324716 15.89709,1.83986 20.771262,2.536273 12.505005,1.786691 18.267192,3.567536 19.450154,6.011208 0.2804,0.57923 0.294065,1.507335 0.02749,1.867249 -0.537077,0.725137 -2.479175,0.991061 -8.561685,1.17232 -3.101612,0.09243 -13.899143,0.312114 -19.578019,0.398333 -1.774396,0.02694 -3.592266,0.07126 -4.039711,0.09848 l -0.813535,0.0495 -1.229446,1.428366 c -1.717957,1.995918 -2.064,2.478952 -2.703746,3.774101 -0.689063,1.394992 -0.884024,2.127225 -0.83005,3.117498 0.04849,0.889727 0.209327,1.222175 0.760432,1.57185 0.856708,0.54358 2.19237,0.829059 7.397648,1.581139 5.29371,0.764858 7.354567,1.177118 8.77491,1.755356 1.064168,0.433235 1.535012,0.895341 1.658796,1.628015 0.218277,1.291972 -1.125277,2.459196 -4.817386,4.185146 -0.852751,0.398635 -2.703924,1.211106 -4.113718,1.80549 -5.87603,2.477397 -7.893226,3.594947 -9.646012,5.343999 -0.784425,0.782754 -0.945293,0.997276 -1.296272,1.728608 -0.220389,0.459222 -0.463251,1.119145 -0.539694,1.466495 -0.419696,1.907058 -0.191622,4.884718 0.608699,7.946996 0.814213,3.115429 2.277092,5.982803 3.576215,7.0097 2.444693,1.93242 6.533367,1.315404 14.721685,-2.221629 0.729204,-0.314987 2.896928,-1.296998 4.817165,-2.182247 4.108138,-1.893893 7.252441,-3.281641 8.967388,-3.957784 1.379887,-0.544042 1.547678,-0.547726 1.843921,-0.04049 0.6016,1.03008 -0.04185,4.229348 -1.508474,7.500217 -1.765807,3.938107 -4.902362,6.922548 -10.009941,9.524489 -3.415154,1.739773 -6.137734,2.699069 -8.798336,3.100078 -1.096062,0.165199 -3.846751,0.163922 -4.913393,-0.0023 z"
     id="path848"
     inkscape:connector-curvature="0" />
  <path
     style="fill:#deffff;stroke-width:0.01104854;fill-opacity:1"
     d="m 29.337537,92.850117 c -0.04921,-0.0523 -0.339464,-0.403205 -0.518626,-0.627005 -1.153566,-1.440984 -2.223374,-3.06242 -3.189255,-4.833738 C 25.26951,86.728906 24.761292,85.723546 24.451193,85.058132 23.651778,83.342736 22.9933,81.685011 22.3161,79.683015 22.151001,79.194936 22.024501,78.844377 21.897226,78.52223 c -0.09053,-0.229133 -0.114693,-0.298897 -0.08728,-0.251962 0.02104,0.03602 0.243519,0.596516 0.345877,0.871369 0.05771,0.154955 0.173031,0.475639 0.256277,0.712631 0.503699,1.43398 0.928409,2.534375 1.43122,3.708191 1.545844,3.608792 3.349164,6.654739 5.377643,9.08326 0.166021,0.198763 0.196368,0.240306 0.175541,0.240306 -0.01411,0 -0.04003,-0.01578 -0.05897,-0.03591 z"
     id="path850"
     inkscape:connector-curvature="0" />
  <path
     style="fill:#008080;stroke-width:0.015625"
     d=""
     id="path852"
     inkscape:connector-curvature="0" />
  <path
     style="fill:#deffff;stroke-width:0.00390625;fill-opacity:1"
     d="m 8.9535377,63.580618 c -0.00546,-0.167585 0.00734,-0.346314 0.037328,-0.521203 0.091434,-0.533172 0.3506225,-1.052439 0.7867346,-1.576172 0.5381177,-0.646234 1.3615617,-1.310697 2.5002087,-2.017498 0.47639,-0.295714 0.923862,-0.551906 1.589391,-0.909977 l 0.226109,-0.121652 0.0317,0.0011 0.0317,0.0011 -0.12109,0.06797 c -1.826308,1.025218 -2.94305,1.772398 -3.711998,2.483595 -0.08169,0.07555 -0.28163,0.276609 -0.3507708,0.352727 -0.2886099,0.31773 -0.4960546,0.613195 -0.6575983,0.936621 -0.1703526,0.341062 -0.2590402,0.659208 -0.289898,1.039941 -0.00503,0.06212 -0.00636,0.318561 -0.00176,0.338867 l 0.00288,0.0127 h -0.035032 -0.035032 z"
     id="path854"
     inkscape:connector-curvature="0" />
  <path
     style="fill:#deffff;stroke-width:0.00390625;fill-opacity:1"
     d="M 10.326973,66.422013 C 10.079677,66.182709 9.9567016,66.033584 9.7516249,65.724322 9.2791218,65.011773 9.0141536,64.348505 8.9643516,63.753619 c -0.00225,-0.02686 -0.00492,-0.05637 -0.00594,-0.06558 l -0.00186,-0.01675 0.034126,0.0011 0.034126,0.0011 9.944e-4,0.01758 c 0.00253,0.0448 0.014078,0.149906 0.024471,0.222811 0.071007,0.498118 0.2838973,1.039002 0.6241577,1.585783 0.2038643,0.327598 0.3937543,0.57187 0.6257683,0.804976 0.04619,0.04641 0.10545,0.104002 0.131687,0.127983 l 0.0477,0.0436 h -0.04827 -0.04827 z"
     id="path856"
     inkscape:connector-curvature="0" />
  <path
     style="fill:#deffff;stroke-width:0.00390625;fill-opacity:1"
     d="m 13.585976,68.336979 c -0.07873,-0.05181 -0.311491,-0.189341 -0.47328,-0.279649 -0.140087,-0.07819 -0.262993,-0.138866 -0.589844,-0.291181 -0.407261,-0.189787 -0.554259,-0.260679 -0.734375,-0.354163 -0.569389,-0.295525 -0.977181,-0.562589 -1.335495,-0.874615 l -0.06792,-0.05914 0.04716,-0.0011 0.04716,-0.0011 0.05888,0.05059 c 0.290513,0.249574 0.648263,0.490709 1.101262,0.742289 0.17926,0.09955 0.274396,0.149305 0.602069,0.31485 0.480055,0.242531 0.732961,0.376685 1.029297,0.545989 0.119825,0.06846 0.366413,0.213994 0.372721,0.219978 8.95e-4,8.49e-4 -0.007,0.0014 -0.01758,0.0013 -0.01511,-2.24e-4 -0.02365,-0.0032 -0.04007,-0.01401 z"
     id="path858"
     inkscape:connector-curvature="0" />
  <path
     style="fill:#deffff;stroke-width:0.00390625;fill-opacity:1"
     d="m 46.599355,62.813384 c 0.561558,-0.255535 0.926598,-0.429412 1.433593,-0.682855 0.480322,-0.240109 0.81965,-0.419465 1.179688,-0.623538 1.670717,-0.94698 2.486653,-1.729568 2.644092,-2.536024 0.04243,-0.217365 0.03473,-0.443683 -0.02326,-0.683594 -0.05475,-0.22648 -0.145938,-0.42316 -0.275558,-0.594318 l -0.02915,-0.0385 h 0.04494 0.04494 l 0.01551,0.021 c 0.06565,0.08886 0.118887,0.199061 0.172756,0.357573 0.121337,0.357035 0.153071,0.677791 0.09684,0.978854 -0.09655,0.516938 -0.449724,1.00472 -1.108239,1.530627 -0.356227,0.284492 -0.818547,0.589903 -1.380312,0.911841 -0.71956,0.412367 -1.636271,0.873277 -2.778489,1.396985 l -0.08179,0.0375 -0.06079,-3e-6 -0.06079,-3e-6 z"
     id="path860"
     inkscape:connector-curvature="0" />
  <path
     style="fill:#deffff;stroke-width:0.0078125;fill-opacity:1"
     d="m 34.758591,68.499493 c 0,-0.0056 0.227567,-0.166402 0.410156,-0.289826 1.071549,-0.72433 2.441821,-1.446899 4.550782,-2.399709 0.87566,-0.395616 1.69741,-0.752423 3.144531,-1.365367 1.225206,-0.518949 2.450742,-1.051503 3.351562,-1.456415 0.210347,-0.09455 0.211088,-0.09481 0.264533,-0.09267 l 0.05359,0.0021 -0.16297,0.07339 c -1.14133,0.514012 -2.163681,0.953529 -3.827033,1.645274 -0.348046,0.144743 -0.789257,0.329344 -0.980468,0.410223 -2.925263,1.237337 -4.95474,2.258356 -6.414195,3.22695 -0.116458,0.07729 -0.246809,0.165073 -0.289668,0.195076 -0.06765,0.04736 -0.100825,0.06411 -0.100825,0.05092 z"
     id="path862"
     inkscape:connector-curvature="0" />
  <path
     style="fill:#deffff;stroke-width:0.00390625;fill-opacity:1"
     d="m 49.915096,56.682183 c -0.01979,-0.0086 -0.224513,-0.08046 -0.311299,-0.109268 -1.285762,-0.426855 -3.164813,-0.793407 -6.947262,-1.355222 -0.400812,-0.05953 -1.397109,-0.205072 -1.935547,-0.282744 l -0.04687,-0.0068 -0.0012,-0.01622 c -0.001,-0.01393 -1.92e-4,-0.01599 0.0059,-0.01461 0.0085,0.0019 0.586793,0.08202 1.364467,0.188975 0.899516,0.123708 1.371019,0.191114 1.943359,0.277822 2.723363,0.41258 4.594712,0.808066 5.8125,1.228398 0.06016,0.02076 0.115088,0.03963 0.122071,0.04191 0.01255,0.0041 0.0127,0.0045 0.0127,0.0289 0,0.0136 -0.0013,0.02467 -0.0029,0.02458 -0.0016,-8.4e-5 -0.0087,-0.0027 -0.01585,-0.0058 z"
     id="path864"
     inkscape:connector-curvature="0" />
  <path
     style="fill:#deffff;stroke-width:0.0078125;fill-opacity:1"
     d="m 51.467731,57.580585 c -0.180791,-0.207519 -0.466028,-0.410553 -0.838864,-0.59711 -0.165238,-0.08268 -0.246894,-0.118731 -0.486047,-0.214587 -0.205088,-0.0822 -0.207091,-0.08323 -0.203125,-0.10391 l 0.004,-0.02089 0.144532,0.05467 c 0.390119,0.147573 0.744204,0.318729 0.996093,0.481487 0.209932,0.135648 0.420869,0.320251 0.513027,0.44898 l 0.01538,0.02148 h -0.04195 -0.04196 z"
     id="path866"
     inkscape:connector-curvature="0" />
  <path
     style="fill:#008080;stroke-width:0.0078125"
     d=""
     id="path868"
     inkscape:connector-curvature="0" />
  <path
     style="fill:#deffff;stroke-width:0.00390625;fill-opacity:1"
     d="m 34.680513,47.696535 c 0.0024,-0.0045 0.02503,-0.04094 0.05031,-0.08105 0.296475,-0.470448 0.656399,-0.945041 1.289145,-1.699859 0.268173,-0.31991 0.450719,-0.533249 1.399186,-1.635209 l 0.612264,-0.711349 0.02613,-0.0027 c 0.01437,-0.0015 0.02652,-0.0022 0.02699,-0.0015 4.75e-4,6.25e-4 -0.463012,0.540785 -1.029972,1.200355 -1.359918,1.582056 -1.433364,1.667678 -1.501511,1.750427 -0.275476,0.334505 -0.558004,0.727204 -0.813993,1.131409 -0.03525,0.05566 -0.03694,0.05762 -0.04969,0.05762 -0.01216,0 -0.01286,-6.43e-4 -0.0089,-0.0081 z"
     id="path870"
     inkscape:connector-curvature="0" />
  <path
     style="fill:#deffff;stroke-width:0.00390625;fill-opacity:1"
     d="m 38.272146,43.553822 c 0.01917,-0.0021 0.568437,-0.03507 0.673829,-0.04045 0.247262,-0.01263 0.987066,-0.03437 1.796875,-0.05278 0.524493,-0.01193 1.413911,-0.02935 1.499023,-0.02937 l 0.04785,-8e-6 v 0.02306 0.02306 l -0.04004,0.0023 c -0.02202,0.0012 -0.885547,0.01814 -1.918946,0.03753 -2.093441,0.03929 -2.080391,0.03906 -2.058594,0.03668 z"
     id="path872"
     inkscape:connector-curvature="0" />
  <path
     style="fill:#deffff;stroke-width:0.00390625;fill-opacity:1"
     d="m 44.842262,43.432318 c 0.0038,-9.82e-4 0.0099,-9.82e-4 0.01367,0 0.0038,9.83e-4 6.84e-4,0.0018 -0.0068,0.0018 -0.0075,0 -0.0106,-8.04e-4 -0.0068,-0.0018 z"
     id="path874"
     inkscape:connector-curvature="0" />
  <path
     style="fill:#deffff;stroke-width:0.00390625;fill-opacity:1"
     d="m 42.290504,43.454907 v -0.02307 l 0.03613,-0.0022 c 0.01987,-0.0012 0.169727,-0.004 0.333008,-0.0063 0.163281,-0.0023 0.402344,-0.0059 0.53125,-0.0079 0.128906,-0.0021 0.402246,-0.0065 0.607422,-0.0097 0.829586,-0.01325 2.037218,-0.03385 2.863241,-0.04883 0.235231,-0.0043 0.434304,-0.0078 0.442383,-0.0078 h 0.01469 v 0.01891 0.01891 l -0.129883,0.0026 c -0.499094,0.01006 -4.628458,0.08847 -4.659438,0.08847 h -0.0388 z"
     id="path876"
     inkscape:connector-curvature="0" />
  <path
     style="fill:#deffff;stroke-width:0.00390625;fill-opacity:1"
     d="m 64.479109,42.975924 v -0.02542 h 0.02299 c 0.05128,0 0.74557,-0.03118 1.135218,-0.05098 3.184873,-0.161853 4.626905,-0.402107 5.208985,-0.867858 0.07867,-0.06295 0.145835,-0.133375 0.191922,-0.201245 0.12126,-0.178573 0.18564,-0.486662 0.177749,-0.850619 -0.0014,-0.0623 -0.0042,-0.131738 -0.0063,-0.154297 -0.0021,-0.02256 -0.005,-0.05464 -0.0064,-0.07129 l -0.0026,-0.03027 h 0.02748 c 0.02525,0 0.02766,7.14e-4 0.02967,0.0088 0.0061,0.02454 0.01113,0.190096 0.0088,0.290039 -0.0064,0.275151 -0.0272,0.430793 -0.0783,0.585937 -0.04915,0.149243 -0.12036,0.269247 -0.223911,0.377339 -0.41528,0.433486 -1.369097,0.670483 -3.377853,0.839303 -0.735531,0.06182 -1.920935,0.129372 -2.949219,0.168078 -0.05801,0.0022 -0.117334,0.0049 -0.131835,0.0059 l -0.02637,0.002 z"
     id="path878"
     inkscape:connector-curvature="0" />
  <path
     style="fill:#deffff;stroke-width:0.00552427;fill-opacity:1"
     d="m 58.194683,43.149271 v -0.0229 l 0.03453,-2.4e-5 c 0.01899,-1.3e-5 0.137693,-0.0025 0.263784,-0.0055 0.126092,-0.003 0.449262,-0.01048 0.718156,-0.01663 2.318409,-0.05303 3.637324,-0.08962 4.775733,-0.132526 0.157994,-0.006 0.33263,-0.01251 0.38808,-0.01458 l 0.100818,-0.0038 v 0.02241 0.02242 l -0.06215,0.0033 c -0.05609,0.003 -0.221781,0.0092 -0.680867,0.02539 -1.205166,0.04251 -2.884357,0.08725 -4.971844,0.132459 -0.136726,0.003 -0.320063,0.007 -0.407416,0.0091 l -0.158822,0.0037 z"
     id="path880"
     inkscape:connector-curvature="0" />
  <path
     style="fill:#deffff;stroke-width:0.00390625;fill-opacity:1"
     d="m 71.225402,40.722584 c -0.0145,-7.52e-4 -0.02637,-0.0031 -0.02637,-0.0053 0,-0.01593 -0.0228,-0.160303 -0.03515,-0.2226 -0.04178,-0.210692 -0.09833,-0.380219 -0.183694,-0.550693 -0.335878,-0.670769 -1.024729,-1.288665 -2.078027,-1.863981 -0.117877,-0.06438 -0.329155,-0.174219 -0.416016,-0.216269 l -0.05859,-0.02837 0.05807,-2.83e-4 0.05807,-2.82e-4 0.104041,0.05335 c 0.203348,0.104279 0.318137,0.166172 0.477087,0.257238 0.736162,0.421766 1.280076,0.868122 1.633518,1.340525 0.107901,0.144218 0.187207,0.272293 0.264411,0.427008 0.121813,0.244113 0.194555,0.482366 0.227128,0.743917 0.0089,0.07126 0.0087,0.06883 0.0048,0.06782 -0.0016,-4.21e-4 -0.0148,-0.0014 -0.0293,-0.0021 z"
     id="path882"
     inkscape:connector-curvature="0" />
  <path
     style="fill:#deffff;stroke-width:0.00390625;fill-opacity:1"
     d="m 67.874846,37.582247 c -0.01502,-0.0082 -0.229001,-0.09831 -0.358579,-0.151052 -1.958957,-0.797439 -4.755108,-1.535348 -8.530093,-2.251107 -0.141796,-0.02689 -0.279785,-0.05294 -0.30664,-0.0579 l -0.04883,-0.009 -0.0012,-0.02242 c -6.44e-4,-0.01233 3.38e-4,-0.02242 0.0022,-0.02242 0.0018,0 0.06917,0.01236 0.149609,0.02747 4.061978,0.763054 6.971002,1.535871 8.991281,2.388643 l 0.117864,0.04975 v 0.02683 c 0,0.01476 -0.0013,0.02676 -0.0029,0.02667 -0.0016,-8.6e-5 -0.0073,-0.0025 -0.0127,-0.0055 z"
     id="path884"
     inkscape:connector-curvature="0" />
  <path
     style="fill:#deffff;stroke-width:0.0078125;fill-opacity:1"
     d="m 58.434365,35.075481 c -0.95339,-0.181568 -2.872867,-0.504817 -4.351562,-0.732824 -2.520314,-0.38862 -4.751756,-0.693634 -9.203125,-1.257967 -1.046558,-0.13268 -3.947002,-0.492668 -3.969456,-0.492668 -0.0039,0 -0.0071,-0.007 -0.0071,-0.01563 0,-0.01 0.0052,-0.01563 0.01443,-0.01563 0.02105,0 3.654052,0.449453 5.341039,0.660761 4.799876,0.601223 8.67561,1.175147 11.921875,1.76541 0.223437,0.04063 0.415918,0.0759 0.427734,0.07838 0.01628,0.0034 0.02148,0.0091 0.02148,0.02342 0,0.02423 0.0024,0.02439 -0.195313,-0.01325 z"
     id="path886"
     inkscape:connector-curvature="0" />
  <path
     style="fill:#008080;stroke-width:0.01104854"
     d=""
     id="path888"
     inkscape:connector-curvature="0" />
  <path
     style="fill:#deffff;stroke-width:0.00390625;fill-opacity:1"
     d="m 36.680993,32.08499 c -2.327824,-0.276641 -4.655201,-0.534785 -5.824219,-0.646 -0.817861,-0.07781 -1.646382,-0.129869 -2.396484,-0.150589 -0.131677,-0.0036 -0.567841,-0.01149 -0.645508,-0.01163 l -0.03223,-5.6e-5 v -0.03774 -0.03774 l 0.147461,0.0026 c 0.241544,0.0043 0.671692,0.02162 0.93457,0.03767 0.27011,0.01649 0.406854,0.02529 0.550782,0.03543 0.187992,0.01326 0.499954,0.0368 0.564453,0.04261 0.02363,0.0021 0.08779,0.0075 0.142578,0.01191 0.942078,0.07612 2.533051,0.239292 4.170896,0.427777 0.06499,0.0075 0.172216,0.01981 0.238282,0.02741 0.648985,0.07459 1.597292,0.186413 2.278322,0.268645 l 0.232422,0.02806 0.0012,0.02246 c 6.45e-4,0.01235 -2.34e-4,0.02228 -0.002,0.02205 -0.0017,-2.24e-4 -0.163964,-0.01952 -0.360546,-0.04288 z"
     id="path890"
     inkscape:connector-curvature="0" />
  <path
     style="fill:#deffff;stroke-width:0.00552427;fill-opacity:1"
     d="m 27.260794,31.281977 c 0.0038,-0.0015 0.01001,-0.0015 0.01381,0 0.0038,0.0015 6.91e-4,0.0028 -0.0069,0.0028 -0.0076,0 -0.0107,-0.0013 -0.0069,-0.0028 z"
     id="path892"
     inkscape:connector-curvature="0" />
  <path
     style="fill:#deffff;stroke-width:0.00552427;fill-opacity:1"
     d="m 22.00002,35.93328 c 0.0021,-0.01766 0.01479,-0.109179 0.02818,-0.203367 0.146917,-1.033722 0.371826,-1.736524 0.730001,-2.281128 0.118238,-0.179781 0.23446,-0.323305 0.391158,-0.483047 0.229713,-0.234173 0.384989,-0.358556 1.019229,-0.81645 0.478599,-0.345529 0.816236,-0.534817 1.194942,-0.669918 0.417708,-0.149014 0.891914,-0.230579 1.543301,-0.265453 0.179851,-0.0096 0.616704,-0.01752 0.748953,-0.01353 l 0.125677,0.0038 v 0.03456 0.03456 l -0.203017,0.0033 c -0.974482,0.01577 -1.513176,0.0588 -1.923827,0.153675 -0.239376,0.05531 -0.470042,0.156494 -0.845214,0.370772 -0.53105,0.303308 -1.237908,0.812419 -1.554361,1.119523 -0.481333,0.46711 -0.908032,1.333679 -1.085473,2.204451 -0.04068,0.199643 -0.08342,0.475438 -0.112985,0.729204 l -0.01255,0.107723 -0.02392,0.0017 -0.02392,0.0017 z"
     id="path894"
     inkscape:connector-curvature="0" />
  <path
     style="fill:#deffff;stroke-width:0.00390625;fill-opacity:1"
     d="m 40.566825,32.551306 c -0.372608,-0.04603 -1.229902,-0.150098 -1.832031,-0.222396 -0.610719,-0.07333 -1.682162,-0.200931 -1.68718,-0.200931 -0.0013,0 -0.0023,-0.0097 -0.0023,-0.02149 0,-0.01606 0.0014,-0.02148 0.0056,-0.02148 0.01515,0 1.615988,0.19487 2.937756,0.357614 0.461914,0.05687 0.856543,0.105267 0.876953,0.107542 0.04787,0.0053 0.04916,0.0058 0.04095,0.01399 -0.0044,0.0044 -0.0058,0.01011 -0.0043,0.01759 0.0015,0.0075 6.54e-4,0.01092 -0.0026,0.01059 -0.0026,-2.7e-4 -0.152441,-0.01873 -0.33291,-0.04103 z"
     id="path896"
     inkscape:connector-curvature="0" />
  <path
     style="fill:#deffff;stroke-width:0.00552427;fill-opacity:1"
     d="m 21.76073,43.77348 c 0.0016,-0.03722 0.0055,-0.679209 0.0087,-1.426643 0.0073,-1.696906 0.01555,-2.487267 0.03376,-3.231699 0.02565,-1.048254 0.06564,-1.834506 0.130591,-2.567406 l 0.0097,-0.109104 h 0.0273 0.0273 l -0.0036,0.04005 c -0.0091,0.101541 -0.03206,0.425469 -0.04459,0.628386 -0.06686,1.082935 -0.109431,2.475483 -0.143956,4.709441 -0.0241,1.559833 -0.03392,2.024646 -0.04275,2.024646 -0.0033,0 -0.0043,-0.02564 -0.0025,-0.06767 z"
     id="path898"
     inkscape:connector-curvature="0" />
  <path
     style="fill:#deffff;stroke-width:0.00390625;fill-opacity:1"
     d="m 41.99675,99.806802 c -0.578756,-0.0443 -1.085306,-0.106441 -1.607422,-0.19718 -2.520695,-0.438072 -4.899423,-1.46425 -7.115234,-3.069496 -0.05478,-0.03969 -0.17124,-0.125788 -0.258789,-0.191331 l -0.15918,-0.119169 v -0.03107 c 0,-0.02428 0.0011,-0.03023 0.0049,-0.02726 0.03595,0.02801 0.23583,0.177552 0.31543,0.235985 0.629315,0.461975 1.264739,0.872592 1.925781,1.244458 0.417762,0.23501 0.892195,0.475757 1.332031,0.675929 1.371953,0.624384 2.873123,1.077472 4.31836,1.303381 0.277112,0.04332 0.753971,0.08266 1.210937,0.0999 0.06231,0.0024 0.12251,0.0052 0.133789,0.0063 l 0.02051,0.0021 v 0.03683 0.03683 l -0.02637,-4.74e-4 c -0.0145,-2.61e-4 -0.05713,-0.0028 -0.09473,-0.0057 z"
     id="path900"
     inkscape:connector-curvature="0" />
  <path
     style="fill:#deffff;stroke-width:0.00390625;fill-opacity:1"
     d="m 32.73283,96.133775 c -0.900606,-0.703836 -1.729784,-1.462326 -2.549147,-2.331831 -0.164403,-0.174465 -0.389899,-0.42162 -0.528764,-0.579553 -0.02456,-0.02793 -0.04814,-0.05474 -0.05241,-0.05957 l -0.0078,-0.0088 0.03291,1.66e-4 0.03291,1.67e-4 0.04297,0.04932 c 0.02363,0.02712 0.08416,0.09516 0.134496,0.1512 0.919982,1.024094 1.888103,1.932811 2.89093,2.713539 0.0591,0.04601 0.111894,0.08717 0.117317,0.09147 0.0092,0.0073 0.0098,0.0097 0.0084,0.03613 -7.85e-4,0.01558 -0.0026,0.0282 -0.004,0.02806 -0.0014,-1.41e-4 -0.05447,-0.04078 -0.117844,-0.09031 z"
     id="path902"
     inkscape:connector-curvature="0" />
  <path
     style="fill:#deffff;stroke-width:0.00390625;fill-opacity:1"
     d="m 42.815808,99.8457 c -0.292129,-0.009 -0.405361,-0.01376 -0.614258,-0.02557 l -0.08301,-0.0047 v -0.03891 -0.03891 l 0.0791,0.0026 c 0.641948,0.02123 1.446193,0.02063 2.077148,-0.0015 0.568124,-0.01996 1.019532,-0.05335 1.34961,-0.09982 0.421805,-0.05938 1.024237,-0.172349 1.51954,-0.284937 0.106716,-0.02426 0.382564,-0.08958 0.397452,-0.09412 0.0061,-0.0019 0.0068,0.0011 0.0068,0.027 v 0.02908 l -0.02441,0.0061 c -0.01343,0.0034 -0.09297,0.02192 -0.176758,0.04123 -0.960454,0.221248 -1.887978,0.364498 -2.822266,0.435879 -0.228269,0.01744 -0.4219,0.0283 -0.740234,0.04152 -0.09238,0.0038 -0.875998,0.0079 -0.96875,0.005 z"
     id="path904"
     inkscape:connector-curvature="0" />
  <path
     style="fill:#deffff;stroke-width:0.0078125;fill-opacity:1"
     d="m 47.55228,99.288824 c -0.0026,-0.0131 -0.0034,-0.02517 -0.0017,-0.02683 0.0017,-0.0017 0.07815,-0.02235 0.169976,-0.04597 1.64195,-0.422429 3.353923,-1.058806 5.268518,-1.958422 3.207213,-1.506979 5.538914,-2.982601 7.433594,-4.704365 0.237125,-0.215484 0.632815,-0.599105 0.816406,-0.791505 0.171449,-0.179675 0.171959,-0.180124 0.205949,-0.18092 l 0.03407,-7.98e-4 -0.14583,0.151781 c -0.44608,0.46428 -0.996275,0.974144 -1.551223,1.437516 -2.299121,1.919723 -5.27864,3.603331 -9.039063,5.107614 -1.073218,0.429321 -1.9771,0.728369 -2.946464,0.974836 l -0.239433,0.06088 z"
     id="path906"
     inkscape:connector-curvature="0" />
  <path
     style="fill:#deffff;stroke-width:0.00390625;fill-opacity:1"
     d="m 61.427348,91.564139 c 0.80281,-0.849429 1.531017,-1.805622 2.121756,-2.786029 0.414856,-0.688506 0.746378,-1.341909 1.100478,-2.168946 l 0.06565,-0.15332 h 0.02477 c 0.01362,0 0.02477,9.99e-4 0.02477,0.0022 0,0.003 -0.0572,0.136595 -0.115314,0.269263 -0.269331,0.614861 -0.537756,1.16792 -0.778261,1.603516 -0.535903,0.970613 -1.177836,1.881264 -1.944028,2.757813 -0.13183,0.150817 -0.314108,0.352057 -0.408009,0.450451 l -0.03663,0.03838 -0.02959,0.0017 c -0.01675,9.87e-4 -0.03343,0.0043 -0.03843,0.0075 -0.01696,0.01111 -0.01383,0.0056 0.01285,-0.02263 z"
     id="path908"
     inkscape:connector-curvature="0" />
  <path
     style="fill:#deffff;stroke-width:0.00390625;fill-opacity:1"
     d="m 64.817885,86.207561 c 0.01745,-0.04029 0.130127,-0.322208 0.174945,-0.437705 0.640273,-1.64998 1.058092,-3.223872 1.179777,-4.444131 0.009,-0.09056 0.01894,-0.213184 0.02289,-0.283203 l 0.0028,-0.04883 0.02294,-0.0012 0.02294,-0.0012 -0.0027,0.0422 c -0.01615,0.255762 -0.03874,0.474199 -0.07667,0.741421 -0.17688,1.246084 -0.621433,2.783112 -1.252669,4.331054 l -0.04898,0.120118 h -0.02665 -0.02665 z"
     id="path910"
     inkscape:connector-curvature="0" />
  <path
     style="fill:#deffff;stroke-width:0.00390625;fill-opacity:1"
     d="m 54.992817,83.560914 0.0012,-0.02268 0.125,-0.05804 c 3.055285,-1.418567 6.178976,-2.810769 8.108303,-3.613799 l 0.127834,-0.05321 0.05687,0.0011 0.05687,0.0011 -0.182748,0.0758 c -1.790201,0.742531 -4.472129,1.935244 -7.922733,3.523415 -0.196444,0.09042 -0.360452,0.165433 -0.364462,0.166706 -0.0066,0.0021 -0.0072,2.59e-4 -0.0061,-0.02036 z"
     id="path912"
     inkscape:connector-curvature="0" />
  <path
     style="fill:#deffff;stroke-width:0.00390625;fill-opacity:1"
     d="m 66.199177,80.974573 c 0.0013,-0.01025 0.0042,-0.08196 0.0064,-0.159366 0.01439,-0.491124 -0.04135,-0.905457 -0.158947,-1.181533 -0.03788,-0.08892 -0.104664,-0.204035 -0.166822,-0.287538 -0.195039,-0.262016 -0.404238,-0.278879 -0.99473,-0.08018 -0.257162,0.08653 -0.733106,0.270048 -1.267209,0.48861 l -0.144163,0.05899 -0.05759,-0.0011 -0.0576,-0.0011 0.160742,-0.06607 c 0.81487,-0.334942 1.404647,-0.558301 1.691874,-0.640742 0.132664,-0.03808 0.190311,-0.04611 0.26965,-0.03758 0.187585,0.02018 0.334993,0.103032 0.456814,0.256754 0.205788,0.259678 0.3146,0.726878 0.314629,1.350917 4e-6,0.0845 -0.0065,0.311116 -0.009,0.312858 -3.99e-4,2.8e-4 -0.011,0.0017 -0.02356,0.0031 l -0.02284,0.0026 z"
     id="path914"
     inkscape:connector-curvature="0" />
  <path
     style="fill:#deffff;stroke-width:0.00390625;fill-opacity:1"
     d="m 50.348826,85.670786 v -0.01488 l 0.217327,-0.09498 c 1.054768,-0.460983 1.981547,-0.882005 3.46822,-1.575563 0.886799,-0.413707 0.952454,-0.444228 0.955587,-0.444228 0.0015,0 0.0022,0.01011 0.0014,0.02246 l -0.0013,0.02246 -0.235662,0.108575 c -0.972898,0.448236 -2.412038,1.103154 -3.34699,1.523135 -0.466795,0.209685 -1.049757,0.4679 -1.05636,0.4679 -0.0012,0 -0.0022,-0.0067 -0.0022,-0.01488 z"
     id="path916"
     inkscape:connector-curvature="0" />
  <path
     style="fill:#008080;stroke-width:0.00390625"
     d=""
     id="path918"
     inkscape:connector-curvature="0" />
  <path
     style="fill:#deffff;stroke-width:0.00390625;fill-opacity:1"
     d="m 38.853401,88.981864 c -0.548018,-0.02103 -0.981605,-0.08047 -1.433594,-0.196508 -0.174725,-0.04486 -0.38831,-0.11275 -0.541016,-0.171971 -0.03975,-0.01541 -0.08237,-0.03175 -0.09473,-0.03629 -0.01844,-0.0068 -0.02246,-0.0099 -0.02246,-0.01725 0,-0.0049 8.43e-4,-0.009 0.0019,-0.009 0.001,0 0.01993,0.0072 0.04199,0.01601 0.800568,0.319462 1.730957,0.44431 2.848711,0.382264 1.607441,-0.08923 3.620955,-0.57285 6.166016,-1.481005 0.108496,-0.03872 0.198584,-0.0712 0.200195,-0.07219 0.0016,-9.86e-4 0.0029,0.0041 0.0029,0.01137 v 0.01317 l -0.05762,0.0207 c -1.174273,0.421963 -2.273413,0.767609 -3.174804,0.998379 -0.04727,0.0121 -0.108789,0.02787 -0.136719,0.03505 -0.192171,0.04937 -0.544577,0.131888 -0.765625,0.179273 -0.905273,0.194059 -1.683061,0.298711 -2.427734,0.326653 -0.08966,0.0034 -0.529362,0.0043 -0.607422,0.0013 z"
     id="path920"
     inkscape:connector-curvature="0" />
  <path
     style="fill:#deffff;stroke-width:0.00390625;fill-opacity:1"
     d="m 46.024172,87.40709 0.0012,-0.01234 0.183872,-0.06726 c 1.181846,-0.432302 2.572292,-0.992399 4.000967,-1.611663 0.07373,-0.03196 0.134815,-0.05811 0.135742,-0.05811 9.27e-4,0 0.0017,0.0068 0.0017,0.01519 v 0.01519 l -0.147461,0.06338 c -1.512757,0.650178 -2.82392,1.175696 -4.035746,1.617539 -0.07606,0.02773 -0.13901,0.05042 -0.139896,0.05042 -8.86e-4,0 -0.0011,-0.0056 -3.87e-4,-0.01234 z"
     id="path922"
     inkscape:connector-curvature="0" />
  <path
     style="fill:#deffff;stroke-width:0.00390625;fill-opacity:1"
     d="m 33.567423,84.995722 c -0.748025,-1.525044 -1.316505,-3.167536 -1.729864,-4.998047 l -0.02492,-0.110352 h 0.01079 c 0.0097,0 0.01123,0.0019 0.01503,0.01856 0.217503,0.951672 0.414314,1.66115 0.69161,2.493164 0.317039,0.951261 0.682568,1.849352 1.058933,2.601757 0.03217,0.06432 0.0585,0.117833 0.0585,0.118921 0,0.0011 -0.0041,0.002 -0.0091,0.002 -0.0081,0 -0.01606,-0.0141 -0.07093,-0.125976 z"
     id="path924"
     inkscape:connector-curvature="0" />
  <path
     style="fill:#008080;stroke-width:0.0078125"
     d=""
     id="path926"
     inkscape:connector-curvature="0" />
  <path
     style="fill:#deffff;stroke-width:0.00390625;fill-opacity:1"
     d="m 31.584825,78.74364 c -0.0071,-0.03362 -0.06639,-0.390853 -0.08829,-0.532227 -0.265656,-1.715435 -0.324649,-3.28852 -0.17003,-4.533925 0.02008,-0.161762 0.01736,-0.149669 0.03366,-0.149669 0.01172,0 0.01303,0.001 0.01132,0.0088 -0.0029,0.01308 -0.01631,0.111568 -0.0273,0.200196 -0.03322,0.267878 -0.0545,0.539366 -0.06873,0.876953 -0.0022,0.05264 -0.0051,0.21875 -0.0064,0.36914 -0.0085,1.003035 0.07758,2.10424 0.254607,3.25586 0.02269,0.147605 0.08265,0.509961 0.08581,0.518554 0.0012,0.0032 -0.0021,0.0049 -0.0095,0.0049 -0.01029,0 -0.01162,-0.0016 -0.01521,-0.01855 z"
     id="path928"
     inkscape:connector-curvature="0" />
  <path
     style="fill:#deffff;stroke-width:0.25;fill-opacity:1"
     d="m 98.355699,105.23684 c -0.06501,-0.30938 -0.67527,-3.09375 -1.356143,-6.187504 -2.089407,-9.493847 -2.807078,-15.18825 -3.67065,-29.125 -0.635404,-10.25446 -1.255079,-13.741724 -2.876962,-16.190322 -1.28196,-1.935407 -2.949063,-2.977905 -8.916442,-5.575764 -3.568512,-1.553528 -6.073978,-2.884873 -6.582766,-3.497925 -0.288661,-0.347815 -0.252297,-0.568747 0.249211,-1.514098 0.822038,-1.549558 3.652894,-4.160031 4.924318,-4.540959 0.640957,-0.192035 2.694476,-0.305931 5.515858,-0.305931 3.969335,0 4.539152,-0.05114 4.874613,-0.4375 0.208927,-0.240625 1.472462,-2.18125 2.807856,-4.3125 2.996815,-4.782828 4.871502,-7.289035 5.382181,-7.195257 0.550802,0.101146 2.622477,4.433225 3.381127,7.070257 0.35601,1.2375 0.81996,3.2625 1.03099,4.5 0.21103,1.2375 0.53986,2.493085 0.73073,2.790189 0.48966,0.762197 1.51043,1.013967 5.36474,1.323205 4.91039,0.393967 7.5,1.123447 7.5,2.112705 0,0.758822 -1.83074,2.041548 -5.55495,3.892124 -4.81238,2.391292 -5.69941,3.066179 -6.68127,5.083372 -1.51982,3.12241 -1.81635,7.145764 -2.26994,30.798404 -0.35121,18.314634 -0.58453,20.994344 -1.87927,21.584264 -1.048008,0.47751 -1.838676,0.36861 -1.973231,-0.27176 z"
     id="path930"
     inkscape:connector-curvature="0" />
  <path
     style="fill:#deffff;stroke-width:0.01104854;fill-opacity:1"
     d="m 81.440265,48.267779 c -3.526723,-1.531232 -6.202877,-2.952861 -6.751125,-3.58634 -0.08907,-0.102919 -0.09913,-0.133842 -0.09801,-0.301309 8.29e-4,-0.124427 0.0056,-0.161053 0.03584,-0.273937 0.182262,-0.680837 0.884755,-1.801371 1.791962,-2.858325 0.439861,-0.512466 1.057127,-1.144081 1.477167,-1.511503 0.726777,-0.635737 1.43916,-1.032482 2.284636,-1.272375 0.718313,-0.203812 1.553006,-0.313851 2.76766,-0.364864 0.644001,-0.02705 1.416121,-0.03289 4.259214,-0.03226 l 3.016252,6.7e-4 -0.07734,0.02755 c -0.104943,0.03738 -0.354691,0.08764 -0.535854,0.107848 -0.57721,0.06438 -1.223573,0.08025 -3.878039,0.09521 -1.060384,0.006 -2.084584,0.01567 -2.276,0.02155 -1.123091,0.03446 -1.889334,0.07759 -2.469349,0.13898 -0.646174,0.06839 -0.908162,0.13086 -1.237437,0.29504 -1.367156,0.68168 -3.622122,2.819333 -4.460857,4.228783 -0.145891,0.245163 -0.389144,0.745632 -0.459148,0.944651 -0.100189,0.284834 -0.07946,0.47084 0.07583,0.680303 0.285141,0.384635 1.275027,1.001992 2.982724,1.860223 1.111509,0.558606 2.108788,1.021506 3.756281,1.743526 0.2218,0.0972 0.418188,0.183391 0.436418,0.191526 0.02947,0.01315 0.01474,0.01473 -0.132583,0.01428 l -0.165728,-5.11e-4 -0.342505,-0.148708 z"
     id="path932"
     inkscape:connector-curvature="0" />
  <path
     style="fill:#deffff;stroke-width:0.00552427;fill-opacity:1"
     d="m 90.400542,37.957112 c 0.0086,-0.01308 0.771804,-1.235147 2.168963,-3.472876 0.420194,-0.672994 0.764603,-1.224314 0.765355,-1.225155 7.51e-4,-8.41e-4 0.03893,-8.41e-4 0.08485,0 l 0.08349,0.0015 -0.204743,0.325932 c -1.3259,2.110711 -2.428984,3.808772 -2.740852,4.219203 -0.02714,0.03572 -0.07317,0.08731 -0.102284,0.114628 -0.0524,0.04918 -0.07118,0.06178 -0.05478,0.03674 z"
     id="path934"
     inkscape:connector-curvature="0" />
  <path
     style="fill:#deffff;stroke-width:0.0078125;fill-opacity:1"
     d="m 103.27696,38.734644 c -0.009,-0.02431 -0.0946,-0.471999 -0.15187,-0.794922 -0.12889,-0.726586 -0.25548,-1.346788 -0.44569,-2.183594 -0.21134,-0.92975 -0.47025,-1.943351 -0.6414,-2.511011 -0.39869,-1.322311 -1.14273,-3.158263 -1.89151,-4.667368 -0.0807,-0.162561 -0.14665,-0.297034 -0.14665,-0.298828 0,-0.0018 0.05995,-0.0033 0.13323,-0.0033 h 0.13322 l 0.0629,0.13086 c 1.11525,2.320253 2.14982,5.445399 2.66584,8.052734 0.0929,0.469516 0.13017,0.694359 0.26272,1.585938 0.0515,0.346265 0.0952,0.625573 0.10604,0.677734 0.004,0.02142 0.004,0.02148 -0.0394,0.02148 -0.0279,0 -0.0452,-0.0035 -0.0475,-0.0098 z"
     id="path936"
     inkscape:connector-curvature="0" />
  <path
     style="fill:#deffff;stroke-width:0.0078125;fill-opacity:1"
     d="m 93.400231,33.254233 c -0.03115,-0.0015 -0.05664,-0.004 -0.05664,-0.0056 0,-0.006 0.974517,-1.560695 1.153495,-1.840174 0.717468,-1.120343 1.394306,-2.116888 2.073373,-3.052735 l 0.05811,-0.08008 h 0.100657 c 0.07941,0 0.09904,0.0021 0.09299,0.0098 -0.05633,0.07171 -0.496163,0.687758 -0.698614,0.978516 -0.691785,0.99353 -1.797371,2.676969 -2.538346,3.865053 -0.07735,0.124018 -0.0827,0.130609 -0.104938,0.129308 -0.01289,-7.55e-4 -0.04893,-0.0026 -0.08008,-0.0041 z"
     id="path938"
     inkscape:connector-curvature="0" />
  <path
     style="fill:#deffff;stroke-width:0.0078125;fill-opacity:1"
     d="m 96.675111,28.213126 c 0.86198,-1.171706 1.523363,-1.929092 1.80999,-2.072722 0.07001,-0.03508 0.10822,-0.03888 0.186703,-0.01854 0.283901,0.07357 0.658151,0.493273 1.093241,1.226028 0.136404,0.229726 0.307055,0.543094 0.435015,0.798829 l 0.0635,0.126953 -0.13482,-8.5e-5 -0.134808,-8.6e-5 -0.06046,-0.119055 c -0.217499,-0.428256 -0.500844,-0.926084 -0.699175,-1.228431 -0.188995,-0.288113 -0.373512,-0.504157 -0.47295,-0.553759 -0.04051,-0.02021 -0.05083,-0.02211 -0.101563,-0.01872 -0.203175,0.01359 -0.552418,0.323899 -1.08393,0.9631 -0.196999,0.236913 -0.508219,0.635724 -0.690446,0.884766 l -0.05288,0.07227 h -0.100994 -0.100993 z"
     id="path940"
     inkscape:connector-curvature="0" />
  <path
     style="fill:#deffff;stroke-width:0.01104854;fill-opacity:1"
     d="m 115.23909,43.000029 c -1.12142,-0.377291 -2.89199,-0.681561 -5.22044,-0.897125 -0.19749,-0.01828 -0.62915,-0.05576 -0.95923,-0.08328 -2.81188,-0.234439 -3.89501,-0.412941 -4.56898,-0.752975 -0.17795,-0.08978 -0.30675,-0.181391 -0.43248,-0.307599 -0.18305,-0.18375 -0.25567,-0.308692 -0.36626,-0.630112 -0.10294,-0.299201 -0.24545,-0.830212 -0.35179,-1.310864 -0.0274,-0.123686 -0.0523,-0.235808 -0.0554,-0.24916 -0.005,-0.0221 -0.002,-0.02412 0.0386,-0.02251 0.0243,9.71e-4 0.0443,0.005 0.0443,0.0089 0,0.0039 0.0172,0.103569 0.0381,0.221385 0.18309,1.028844 0.37812,1.561252 0.71154,1.942422 0.23962,0.273936 0.61212,0.472219 1.12202,0.597257 0.52869,0.129643 1.19114,0.202794 2.60298,0.287432 1.44587,0.08668 2.1711,0.141575 3.07702,0.23292 1.63338,0.164697 2.92878,0.382355 3.88069,0.652052 0.20704,0.05866 0.51783,0.15843 0.54198,0.173994 0.0101,0.0065 0.0134,0.03333 0.011,0.09181 l -0.003,0.08259 z"
     id="path942"
     inkscape:connector-curvature="0" />
  <path
     style="fill:#deffff;stroke-width:0.0078125;fill-opacity:1"
     d="m 108.50335,49.414778 c 0,-0.0035 0.26376,-0.145495 0.58593,-0.315472 0.41828,-0.220683 0.86325,-0.447469 1.80469,-0.919781 0.51777,-0.259762 1.06094,-0.534141 1.20703,-0.609731 2.48721,-1.28689 3.92273,-2.241636 4.43171,-2.947472 0.0625,-0.0867 0.14534,-0.253078 0.16574,-0.33295 0.0211,-0.08243 0.0214,-0.199019 7.5e-4,-0.279591 -0.0165,-0.0646 -0.0538,-0.145257 -0.0993,-0.214996 -0.0394,-0.06033 -0.20991,-0.229242 -0.28996,-0.28725 -0.2072,-0.150153 -0.5287,-0.311669 -0.86403,-0.434081 l -0.0901,-0.03287 -0.002,-0.08866 c -0.002,-0.08554 -0.002,-0.0885 0.0132,-0.08401 0.0467,0.0139 0.3213,0.126633 0.42578,0.174809 0.56281,0.259517 0.89942,0.568217 0.99251,0.910233 0.0235,0.0863 0.0295,0.254471 0.0125,0.351562 -0.0362,0.20714 -0.15701,0.442068 -0.35355,0.6875 -0.0871,0.108842 -0.36513,0.387969 -0.50303,0.505128 -0.70073,0.595291 -1.68788,1.200746 -3.14844,1.931055 -0.61652,0.308271 -0.88026,0.432516 -1.98438,0.934822 -1.05972,0.482111 -1.45125,0.665631 -1.97889,0.927572 -0.21549,0.106975 -0.26177,0.127204 -0.29102,0.127204 -0.0191,0 -0.0348,-0.0014 -0.0348,-0.003 z"
     id="path944"
     inkscape:connector-curvature="0" />
  <path
     style="fill:#deffff;stroke-width:0.00552427;fill-opacity:1"
     d="m 103.86639,54.683209 c 0,-0.0057 0.0918,-0.287284 0.12122,-0.371855 0.29939,-0.860461 0.75085,-1.770338 1.16206,-2.342007 0.486,-0.675647 1.1027,-1.212751 2.11967,-1.846082 0.3083,-0.191996 0.73794,-0.441366 1.11152,-0.645138 l 0.10887,-0.05938 0.0444,-0.0011 c 0.0244,-6.17e-4 0.0444,-3.81e-4 0.0444,5.26e-4 0,9.06e-4 -0.0255,0.01441 -0.0566,0.03001 -0.31765,0.159093 -0.83241,0.448799 -1.15043,0.647468 -1.65917,1.036483 -2.59575,2.189491 -3.25638,4.008855 -0.0372,0.102456 -0.15886,0.467685 -0.1831,0.549665 l -0.008,0.02762 -0.0288,0.0017 c -0.0158,9.18e-4 -0.0288,8.17e-4 -0.0288,-2.26e-4 z"
     id="path946"
     inkscape:connector-curvature="0" />
  <path
     style="fill:#deffff;stroke-width:0.00390625;fill-opacity:1"
     d="m 102.93799,60.92423 c 8.6e-4,-0.0092 0.009,-0.111737 0.0172,-0.227753 0.096,-1.296657 0.22265,-2.513017 0.35561,-3.414062 0.085,-0.576002 0.18813,-1.148047 0.27908,-1.547964 l 0.006,-0.02821 h 0.0291 c 0.0282,0 0.029,2.74e-4 0.027,0.0088 -0.0529,0.222207 -0.1491,0.703458 -0.21062,1.053711 -0.1931,1.099386 -0.35439,2.481057 -0.47012,4.027344 l -0.0107,0.142578 -0.0122,0.0012 c -0.0122,0.0012 -0.0122,0.0011 -0.0107,-0.01563 z"
     id="path948"
     inkscape:connector-curvature="0" />
  <path
     style="fill:#deffff;stroke-width:0.00390625;fill-opacity:1"
     d="m 103.62362,55.70448 c -0.0145,-7.52e-4 -0.0264,-0.0021 -0.0264,-0.003 0,-0.0065 0.0582,-0.250254 0.09,-0.376877 0.0521,-0.207542 0.096,-0.367483 0.15844,-0.577148 l 0.0189,-0.06348 h 0.0285 c 0.0156,0 0.0284,0.0016 0.0284,0.0036 0,0.002 -0.0141,0.05164 -0.0314,0.110351 -0.0663,0.225325 -0.1659,0.605686 -0.21889,0.83624 -0.009,0.04028 -0.0178,0.0729 -0.019,0.07248 -0.001,-4.2e-4 -0.014,-0.0014 -0.0285,-0.0021 z"
     id="path950"
     inkscape:connector-curvature="0" />
  <path
     style="fill:#deffff;fill-opacity:1"
     d="m 92.851198,64.20561 c -0.478012,-5.741104 -1.18271,-8.612158 -2.604059,-10.609364 -0.8119,-1.140839 -1.904217,-2.044612 -3.579096,-2.961312 -0.3224,-0.176456 -1.046517,-0.540792 -1.438514,-0.72378 l -0.294989,-0.137704 0.07296,-0.0033 0.07296,-0.0033 0.490078,0.243085 c 2.61735,1.298243 3.788777,2.172616 4.754881,3.549126 1.218591,1.736255 1.856755,3.993603 2.346877,8.301507 0.08438,0.741701 0.215301,2.070839 0.263083,2.670985 0.003,0.038 9.45e-4,0.04143 -0.02515,0.04143 h -0.02845 z"
     id="path952"
     inkscape:connector-curvature="0" />
  <path
     style="fill:#008080;stroke-width:0.01104854"
     d=""
     id="path954"
     inkscape:connector-curvature="0" />
  <path
     style="fill:#deffff;stroke-width:0.01104854;fill-opacity:1"
     d="m 84.82167,49.722443 c -0.366859,-0.172958 -1.474778,-0.652867 -2.485456,-1.076606 l -0.52434,-0.219835 0.148689,-0.0055 c 0.135369,-0.005 0.153638,-0.0034 0.203932,0.01848 0.936017,0.406625 2.889194,1.301146 2.889194,1.323201 0,0.0034 -0.03107,0.0059 -0.06905,0.0054 -0.05654,-6.88e-4 -0.08608,-0.0089 -0.162966,-0.04512 z"
     id="path956"
     inkscape:connector-curvature="0" />
  <path
     style="fill:#deffff;stroke-width:0.00552427;fill-opacity:1"
     d="m 98.90383,106.00775 c -0.402208,-0.0408 -0.624524,-0.26314 -0.654524,-0.65458 -0.008,-0.10421 -0.01376,-0.14847 -0.0396,-0.30369 -0.100654,-0.60461 -0.465891,-2.31815 -0.960209,-4.50491 l -0.09425,-0.41695 0.0015,-0.172825 0.0015,-0.172824 0.06536,0.296989 c 0.373366,1.69662 0.942799,4.29503 1.069905,4.88213 0.03684,0.17015 0.07555,0.33515 0.08603,0.36666 0.08924,0.26835 0.315048,0.43145 0.65133,0.47044 0.07107,0.008 0.23024,0.008 0.31499,0 0.235796,-0.0229 0.496215,-0.0894 0.767878,-0.19622 0.30075,-0.11822 0.414,-0.18563 0.56071,-0.33377 0.0774,-0.0781 0.1309,-0.14623 0.19476,-0.24779 0.4103,-0.65247 0.65786,-2.05877 0.84095,-4.77705 0.0251,-0.373472 0.0801,-1.30229 0.0802,-1.354825 10e-6,-0.01228 9.4e-4,-0.01243 0.0746,-0.01243 0.0609,0 0.0746,0.0014 0.0746,0.0079 0,0.0162 -0.0392,0.645033 -0.0554,0.887057 -0.22022,3.308068 -0.50404,5.077638 -0.87498,5.455258 -0.0368,0.0374 -0.0631,0.0553 -0.22425,0.152 -0.53708,0.32235 -1.039702,0.5315 -1.452879,0.60458 -0.140174,0.0248 -0.323788,0.0355 -0.428131,0.0249 z"
     id="path958"
     inkscape:connector-curvature="0" />
  <path
     style="fill:#deffff;stroke-width:0.0078125;fill-opacity:1"
     d="m 101.79372,98.839103 c 0.01,-0.100697 0.0719,-1.507006 0.10485,-2.38086 0.0533,-1.410316 0.13513,-4.170005 0.16014,-5.398437 0.002,-0.120313 0.006,-0.25127 0.009,-0.291016 l 0.004,-0.07227 h 0.0903 0.0903 l -0.005,0.228516 c -0.0294,1.25445 -0.1068,3.604804 -0.16522,5.017578 -0.0428,1.034481 -0.12157,2.642396 -0.14098,2.876953 l -0.005,0.05664 h -0.0732 -0.0732 z"
     id="path960"
     inkscape:connector-curvature="0" />
  <path
     style="fill:#deffff;stroke-width:0.0078125;fill-opacity:1"
     d="m 96.835058,98.723547 c -0.0018,-0.0054 -0.04589,-0.194336 -0.09791,-0.419922 -0.113554,-0.492506 -0.239055,-1.030534 -0.437477,-1.875483 -0.145334,-0.618887 -0.20686,-0.889249 -0.27635,-1.214361 -0.32569,-1.523761 -0.670295,-3.53223 -0.992594,-5.785156 -0.07181,-0.501961 -0.160592,-1.141404 -0.160592,-1.156643 0,-0.0041 0.02637,-0.0074 0.05859,-0.0074 0.0342,0 0.05859,0.0033 0.05859,0.0079 0,0.03275 0.191828,1.299395 0.285724,1.886649 0.400187,2.502893 0.963076,5.431027 1.605334,8.350919 0.02554,0.116126 0.04644,0.213874 0.04644,0.217218 0,0.01056 -0.0861,0.007 -0.08977,-0.0037 z"
     id="path962"
     inkscape:connector-curvature="0" />
  <path
     style="fill:#deffff;stroke-width:0.0078125;fill-opacity:1"
     d="m 102.07063,90.610266 c 0.003,-0.08811 0.0377,-1.607364 0.0468,-2.074219 l 0.005,-0.271485 h 0.0925 0.0925 l -1e-5,0.09961 c -2e-5,0.156839 -0.0411,1.901314 -0.0518,2.199219 l -0.005,0.130859 h -0.0919 -0.0919 l 0.003,-0.08398 z"
     id="path964"
     inkscape:connector-curvature="0" />
  <path
     style="fill:#deffff;stroke-width:0.01104854;fill-opacity:1"
     d="m 94.861865,88.211974 c -0.0034,-0.02735 -0.03883,-0.298311 -0.0788,-0.602146 -0.15454,-1.17488 -0.45887,-3.713978 -0.45887,-3.828461 0,-0.01852 0.0075,-0.02196 0.04775,-0.02196 h 0.04775 l 0.02445,0.223733 c 0.07988,0.731109 0.2112,1.828635 0.311647,2.604694 0.07966,0.615489 0.213838,1.598166 0.225529,1.651757 0.0044,0.01994 -9.38e-4,0.0221 -0.05425,0.0221 h -0.05907 z"
     id="path966"
     inkscape:connector-curvature="0" />
  <path
     style="fill:#deffff;stroke-width:0.01104854;fill-opacity:1"
     d="m 102.12895,88.037959 c 0.004,-0.120015 0.0145,-0.596069 0.0236,-1.057898 0.009,-0.461829 0.0264,-1.32693 0.0384,-1.922447 0.012,-0.595516 0.0219,-1.131232 0.0219,-1.19048 l 3e-5,-0.107723 h 0.0884 0.0884 v 0.16849 c 0,0.247287 -0.0515,3.0653 -0.0733,4.010621 l -0.007,0.317646 h -0.0935 -0.0935 z"
     id="path968"
     inkscape:connector-curvature="0" />
  <path
     style="fill:#deffff;stroke-width:0.01104854;fill-opacity:1"
     d="m 102.21985,83.615542 c 0.002,-0.07748 0.0183,-0.906533 0.0364,-1.842345 0.0487,-2.522458 0.10295,-5.050989 0.15419,-7.192602 0.0119,-0.498289 0.0244,-1.025305 0.0278,-1.171145 0.003,-0.145841 0.009,-0.321099 0.0124,-0.389462 l 0.006,-0.124296 h 0.0431 0.0431 l -1e-4,0.196112 c -5e-5,0.107861 -0.005,0.484479 -0.0109,0.836927 -0.0117,0.692138 -0.045,3.084331 -0.0718,5.15967 -0.009,0.710974 -0.0215,1.628279 -0.0273,2.038456 -0.006,0.410177 -0.0162,1.163412 -0.023,1.673855 -0.007,0.510442 -0.0143,0.934292 -0.0166,0.941888 -0.003,0.0095 -0.031,0.01381 -0.0906,0.01381 h -0.0864 l 0.003,-0.140869 z"
     id="path970"
     inkscape:connector-curvature="0" />
  <path
     style="fill:#deffff;stroke-width:0.01104854;fill-opacity:1"
     d="m 94.318357,83.731551 c -0.0059,-0.02882 -0.0013,0.01227 -0.0725,-0.652225 -0.338245,-3.157286 -0.6369,-6.725195 -0.806187,-9.631206 -0.01221,-0.209647 -0.02513,-0.419707 -0.02871,-0.466801 l -0.0065,-0.08563 h 0.056 c 0.0492,0 0.056,0.0028 0.056,0.02279 0,0.01253 0.005,0.09333 0.01115,0.179539 0.0061,0.08621 0.03608,0.519695 0.06655,0.963294 0.221691,3.227366 0.442389,5.925399 0.674207,8.242213 0.064,0.63966 0.141845,1.387257 0.148113,1.4225 0.0052,0.02941 0.0038,0.03038 -0.04383,0.03038 -0.04219,0 -0.04996,-0.0036 -0.0543,-0.02486 z"
     id="path972"
     inkscape:connector-curvature="0" />
  <path
     style="fill:#deffff;stroke-width:0.0078125;fill-opacity:1"
     d="m 102.54564,72.91896 -0.001,-0.02539 h -0.0477 -0.0477 l 0.005,-0.146484 c 0.003,-0.08057 0.0155,-0.536719 0.0282,-1.013672 0.0263,-0.984194 0.0608,-2.151162 0.0893,-3.023437 0.0107,-0.326563 0.0218,-0.668457 0.0247,-0.759766 l 0.005,-0.166016 h 0.0269 0.0269 l -0.005,0.138672 c -0.0132,0.373097 -0.0528,2.209519 -0.079,3.66211 -0.007,0.378125 -0.0151,0.838671 -0.0185,1.023437 -0.003,0.184766 -0.007,0.324512 -0.007,0.310547 z"
     id="path974"
     inkscape:connector-curvature="0" />
  <path
     style="fill:#deffff;stroke-width:0.015625;fill-opacity:1"
     d="m 93.404566,72.852008 c 0,-0.03947 -0.120695,-2.208199 -0.172322,-3.096393 -0.10491,-1.804888 -0.252995,-4.02194 -0.337881,-5.058594 -0.0085,-0.103221 -0.0063,-0.121093 0.0143,-0.121093 0.03076,0 0.03184,0.0088 0.08923,0.726562 0.118499,1.482049 0.21093,2.806457 0.336413,4.820313 0.08911,1.430034 0.162423,2.563223 0.172618,2.667968 l 0.0095,0.09766 h -0.05593 c -0.04816,0 -0.05593,-0.0051 -0.05593,-0.03642 z"
     id="path976"
     inkscape:connector-curvature="0" />
  <path
     style="fill:#deffff;stroke-width:0.00390625;fill-opacity:1"
     d="m 102.60217,67.729768 c 0.001,-0.02847 0.008,-0.199414 0.014,-0.379883 0.0435,-1.231494 0.10503,-2.690285 0.15218,-3.607422 0.004,-0.08272 0.008,-0.156982 0.008,-0.165039 1e-5,-0.01413 4.9e-4,-0.01465 0.0137,-0.01465 h 0.0137 l -2e-5,0.02051 c -1e-5,0.01128 -0.002,0.05303 -0.004,0.09277 -0.0363,0.688964 -0.10031,2.472463 -0.13468,3.753906 -0.003,0.119239 -0.007,0.247119 -0.008,0.28418 l -0.002,0.06738 h -0.0272 -0.0272 z"
     id="path978"
     inkscape:connector-curvature="0" />
  <path
     style="fill:#deffff;stroke-width:0.00390625;fill-opacity:1"
     d="m 102.77841,63.550828 c 0,-0.01577 0.0241,-0.465571 0.0411,-0.76945 0.0335,-0.595294 0.0718,-1.201607 0.10845,-1.716797 l 0.009,-0.121093 0.0125,-0.0012 c 0.0121,-0.0012 0.0124,-7.81e-4 0.0107,0.01172 -9.9e-4,0.0071 -0.008,0.100818 -0.0154,0.20824 -0.0409,0.587883 -0.0719,1.091799 -0.10343,1.68164 -0.0124,0.232427 -0.0352,0.688027 -0.0352,0.704102 0,0.01414 -4.8e-4,0.01465 -0.0137,0.01465 -0.0126,0 -0.0137,-9.18e-4 -0.0137,-0.0118 z"
     id="path980"
     inkscape:connector-curvature="0" />
  <path
     style="fill:#008080;stroke-width:0.00390625"
     d=""
     id="path982"
     inkscape:connector-curvature="0" />
</svg>
